<?xml version="1.0" encoding="UTF-8"?>
<svg width="21px" height="21px" viewBox="0 0 21 21" version="1.1" xmlns="http://www.w3.org/2000/svg" xmlns:xlink="http://www.w3.org/1999/xlink">
    <!-- Generator: Sketch 41.2 (35397) - http://www.bohemiancoding.com/sketch -->
    <title>Shape Copy</title>
    <desc>Created with Sketch.</desc>
    <defs></defs>
    <g id="Page-1" stroke="none" stroke-width="1" fill="none" fill-rule="evenodd">
        <g id="кнопка" transform="translate(-1300.000000, -437.000000)" fill="#FFFFFF">
            <path d="M1312.11438,449.114459 C1310.03644,451.191091 1307.62901,453.178462 1306.67733,452.226782 C1305.3161,450.86555 1304.476,449.678903 1301.47263,452.09289 C1298.47057,454.505564 1300.77691,456.114888 1302.09614,457.432801 C1303.61883,458.95549 1309.29478,457.514186 1314.9051,451.905179 C1320.51411,446.294859 1321.95147,440.618906 1320.42747,439.096218 C1319.10825,437.775679 1317.5068,435.470644 1315.09413,438.472703 C1312.68014,441.474762 1313.86547,442.314866 1315.22933,443.67741 C1316.17707,444.629091 1314.19101,447.036514 1312.11438,449.114459 Z" id="Shape-Copy" transform="translate(1310.498565, 447.500435) scale(-1, 1) translate(-1310.498565, -447.500435) "></path>
        </g>
    </g>
</svg>